<svg width="288" height="116" viewBox="0 0 288 116" fill="none" xmlns="http://www.w3.org/2000/svg">
<g clip-path="url(#clip0_79_38)">
<path d="M49.5248 71.2276L31.2499 73.5853L29.0394 65.2568H20.6388L18.7977 73.5853L0.00622559 71.7432L14.67 22.6642L35.1554 21.632L49.5248 71.2276ZM27.7129 53.9839L24.9097 41.1613L22.1825 53.9839H27.7129Z" fill="#003870"/>
<path d="M101.296 38.9518C101.333 41.112 100.971 43.2606 100.227 45.289C99.5542 47.0643 98.5609 48.7007 97.2963 50.1165C96.0368 51.5088 94.5637 52.6916 92.9323 53.6205C91.2338 54.5905 89.4357 55.3746 87.5692 55.9592C85.6415 56.5682 83.6654 57.012 81.6624 57.2857C79.6717 57.5646 77.6655 57.7188 75.6556 57.7472V74.9148H58.486C58.486 69.2904 58.4983 63.6904 58.523 58.1147C58.5477 52.539 58.5844 46.9142 58.6331 41.2404C58.6825 38.2443 58.6949 35.2479 58.6702 32.2511C58.6455 29.2544 58.7072 26.2332 58.8554 23.1878C61.9455 22.2658 65.097 21.5633 68.2862 21.0854C71.5072 20.613 74.7587 20.3787 78.0143 20.3846C79.9144 20.3858 81.8114 20.5401 83.6867 20.8461C85.5436 21.1428 87.3649 21.6299 89.1219 22.2998C90.8187 22.9463 92.4379 23.7804 93.9494 24.7866C96.9321 26.7612 99.1833 29.661 100.357 33.04C101.006 34.9424 101.323 36.942 101.296 38.9518ZM84.9362 40.2042C84.9752 39.5132 84.8655 38.8218 84.6146 38.1767C84.3636 37.5317 83.9773 36.9479 83.4815 36.4649C82.4454 35.5435 81.0916 35.0609 79.7062 35.1194C79.1698 35.1215 78.6344 35.164 78.1044 35.2465C77.5497 35.3346 77.0281 35.4378 76.5366 35.5609L76.0941 46.3192C76.4239 46.3676 76.7568 46.3924 77.0902 46.3933H78.0853C78.9576 46.3955 79.8236 46.2454 80.6443 45.9498C81.4487 45.6673 82.1928 45.236 82.8378 44.6783C83.4702 44.134 83.9899 43.4711 84.3675 42.7271C84.7543 41.9431 84.9492 41.0783 84.9362 40.2042Z" fill="#003870"/>
<path d="M146.287 21.2656C146.139 23.5749 146.004 25.8595 145.881 28.1194C145.758 30.3793 145.599 32.6636 145.402 34.9722L129.784 35.7821L129.417 40.4254H140.398L139.586 51.8465L128.532 52.2149L128.165 57.5941H143.782C143.634 60.2951 143.481 62.9789 143.322 65.6453C143.163 68.3116 143.022 70.9813 142.897 73.6544L111.138 74.3902L112.323 21.2656H146.287Z" fill="#003870"/>
<path d="M199.974 22.7413L185.604 47.7208L197.837 69.4586L182.436 74.2481L175.803 59.2159L167.994 74.3222L152.076 68.5746L165.633 47.2062L153.257 24.7305L170.134 20.6769L176.175 35.4888L182.583 20.6769L199.974 22.7413Z" fill="#003870"/>
<path d="M233.764 46.2701C232.254 44.428 234.299 40.1802 239.043 39.9539C243.787 39.7276 246.852 43.8463 245.631 45.9988C245.281 46.6165 246.369 46.7336 248.097 46.6656V33.4094H230.762L230.775 46.3983C232.568 46.4743 233.943 46.4894 233.764 46.2701Z" fill="#28A699"/>
<path d="M271.72 27.9482C267.843 24.7906 239.893 4.79375 237.351 5.00099C231.239 5.49555 209.878 27.3455 207.76 29.3428C205.578 31.3991 215.069 35.4868 217.044 34.3085C221.294 31.7786 225.238 30.5572 225.237 32.2331C225.508 33.8405 225.663 35.4651 225.702 37.0946C225.666 38.7726 225.502 40.6987 225.385 42.9693C225.333 43.8904 225.292 45.1618 225.238 46.15C226.139 46.168 227.304 46.2261 228.484 46.2861L228.461 23.2849H230.753L230.761 31.1198H248.097V23.411H250.389V46.5194C251.544 46.4273 252.792 46.3192 254.023 46.2361C253.957 42.6109 253.702 39.3652 253.653 36.6651C253.641 34.0622 253.71 33.4024 253.71 33.2412C253.71 31.7175 257.725 32.4073 260.83 33.7238C266.663 36.2036 273.445 29.3478 271.72 27.9482Z" fill="#28A699"/>
<path d="M233.372 75.6026C231.429 73.3701 234.101 69.8721 238.846 69.6478C243.59 69.4236 246.571 73.7805 245.067 75.8619C244.605 76.4986 246.077 76.6308 248.096 76.5697V61.4234H230.791L230.805 75.8799C232.387 75.8619 233.534 75.7878 233.372 75.6026Z" fill="#564490"/>
<path d="M242.91 48.819C245.498 46.4744 243.911 42.4568 239.172 42.678C234.434 42.8993 234.857 46.8087 235.72 48.4847C235.863 48.76 233.438 48.818 230.778 48.805L230.789 59.1338H248.097V49.4227C244.918 49.5088 242.241 49.4197 242.91 48.819Z" fill="#564490"/>
<path d="M254.851 76.0812C254.778 72.2978 254.591 68.2642 254.431 64.2496C254.331 58.8645 254.23 53.6956 254.15 49.1234C253.058 49.1955 251.737 49.2746 250.388 49.3376V76.4476C252.023 76.3284 253.69 76.1663 254.851 76.0812Z" fill="#564490"/>
<path d="M225.357 48.7199C225.146 52.8306 224.927 57.4629 224.708 62.3234C224.361 66.8516 223.882 71.4068 223.707 75.7878C224.708 75.8048 226.637 75.8559 228.512 75.8759L228.484 48.778C227.273 48.761 226.152 48.7359 225.357 48.7199Z" fill="#564490"/>
<path d="M223.748 77.8342C223.656 80.1608 223.648 82.4314 223.664 84.6289H223.628C223.359 92.1785 222.716 97.1813 222.757 97.2433C223 97.5917 225.278 97.8851 228.538 98.0893L228.517 77.9183C226.522 77.8932 224.644 77.8492 223.748 77.8342Z" fill="#BA247B"/>
<path d="M256.057 96.6827C256.041 96.4184 255.956 95.228 255.856 93.3278C255.766 88.8227 255.664 83.6308 255.556 78.1215C254.445 78.2036 252.471 78.3407 250.387 78.4418V98.0532C253.795 97.7829 256.096 97.3404 256.057 96.6827Z" fill="#BA247B"/>
<path d="M242.538 77.9433C245.125 75.5956 243.544 71.579 238.799 71.8033C234.053 72.0275 234.486 75.934 235.348 77.6099C235.476 77.8612 233.33 77.9313 230.808 77.9323L230.815 85.0964H248.096V78.538C244.759 78.6411 241.846 78.57 242.538 77.9433Z" fill="#BA247B"/>
<path d="M248.096 87.3921H230.818L230.829 98.2144C236.482 98.4677 243.944 98.4857 249.283 98.1393H248.096V87.3921Z" fill="#BA247B"/>
<path d="M10.365 99.1034L9.78137 97.7339H5.10303L4.51936 99.1034H3.02966L7.45071 89.0389L11.8728 99.1034H10.365ZM5.73976 96.2542H9.14364L7.44871 92.2796L5.73976 96.2542Z" fill="#22242A"/>
<path d="M28.4187 93.5872C28.6822 93.6577 28.9214 93.7989 29.1105 93.9956C29.3148 94.2298 29.4755 94.4987 29.585 94.7895C29.7479 95.2492 29.8217 95.7358 29.8022 96.2232C29.8234 96.7651 29.7451 97.3063 29.571 97.82C29.4522 98.1563 29.2447 98.4541 28.9703 98.682C28.7214 98.8724 28.427 98.9943 28.1163 99.0354C27.7906 99.0809 27.4621 99.1037 27.1332 99.1035H23.2097V89.039H26.6817C27.1157 89.0145 27.5473 89.119 27.9221 89.3393C28.2051 89.5214 28.442 89.7668 28.6139 90.0561C28.7665 90.3192 28.8684 90.6085 28.9142 90.9091C28.9549 91.1484 28.9776 91.3903 28.9823 91.6329C28.9887 91.9489 28.9592 92.2647 28.8942 92.574C28.8478 92.7804 28.7807 92.9817 28.694 93.1747C28.623 93.325 28.5302 93.464 28.4187 93.5872ZM24.7965 93.1357H26.2582C26.4165 93.1403 26.5742 93.1133 26.722 93.0564C26.8698 92.9996 27.0048 92.9138 27.1192 92.8043C27.2437 92.6673 27.3387 92.506 27.3981 92.3307C27.4575 92.1553 27.4802 91.9696 27.4646 91.7851C27.4617 91.6537 27.446 91.523 27.4175 91.3947C27.384 91.2381 27.3219 91.0891 27.2343 90.9552C27.1368 90.8088 27.0095 90.6847 26.8609 90.5907C26.6801 90.4814 26.4713 90.4275 26.2602 90.4356H24.7965V93.1357ZM26.926 97.7339C27.0869 97.7339 27.2476 97.7249 27.4075 97.7069C27.5607 97.6909 27.7064 97.6323 27.828 97.5377C27.9693 97.4149 28.0733 97.255 28.1283 97.0761C28.2165 96.7791 28.2554 96.4697 28.2435 96.1601C28.2512 95.8963 28.2147 95.633 28.1353 95.3812C28.078 95.2015 27.9781 95.0383 27.844 94.9057C27.7258 94.7948 27.5815 94.7156 27.4245 94.6754C27.2609 94.6339 27.0927 94.6134 26.924 94.6143H24.7965V97.7339H26.926Z" fill="#22242A"/>
<path d="M48.3414 99.1034L47.7578 97.7339H43.0784L42.4948 99.1034H41.0031L45.4251 89.0389L49.8471 99.1034H48.3414ZM43.7161 96.2542H47.12L45.4251 92.2806L43.7161 96.2542Z" fill="#22242A"/>
<path d="M81.8697 90.5176H79.0344V89.0389H86.1556V90.5176H83.3473V99.1034H81.8697V90.5176Z" fill="#22242A"/>
<path d="M98.837 89.0389V93.475H103.003V89.0389H104.481V99.1034H103.003V94.8716H98.8521V99.1034H97.3604V89.0389H98.837Z" fill="#22242A"/>
<path d="M121.999 89.0389V90.4405H117.294V93.479H121.092V94.8746H117.294V97.6958H121.999V99.1064H115.815V89.0389H121.999Z" fill="#22242A"/>
<path d="M138.441 99.1034L136.88 95.6855C136.79 95.6945 136.702 95.6986 136.616 95.6986H134.814V99.1024H133.336V89.0389H136.361C136.542 89.0389 136.752 89.0456 136.991 89.059C137.238 89.0741 137.483 89.1102 137.723 89.1671C137.98 89.2292 138.227 89.3273 138.456 89.4584C138.707 89.6041 138.926 89.7977 139.101 90.0281C139.31 90.3111 139.464 90.6306 139.556 90.9701C139.678 91.427 139.735 91.8989 139.726 92.3718C139.731 92.761 139.694 93.1496 139.617 93.5311C139.558 93.8266 139.456 94.1122 139.316 94.379C139.198 94.5973 139.046 94.7962 138.868 94.9687C138.708 95.1217 138.528 95.2517 138.332 95.3552L140.068 99.0984L138.441 99.1034ZM135.796 94.2209C136.067 94.2209 136.35 94.2162 136.643 94.2068C136.917 94.2023 137.187 94.1423 137.437 94.0306C137.682 93.9132 137.886 93.7239 138.021 93.488C138.173 93.1369 138.251 92.7583 138.251 92.3758C138.251 91.9932 138.173 91.6147 138.021 91.2635C137.886 91.0276 137.682 90.8384 137.437 90.7209C137.189 90.6095 136.922 90.5473 136.65 90.5377C136.361 90.5246 136.081 90.5176 135.809 90.5176H134.818V94.2219L135.796 94.2209Z" fill="#22242A"/>
<path d="M158.608 99.1034L158.025 97.7339H153.346L152.763 99.1034H151.271L155.692 89.0389L160.114 99.1034H158.608ZM153.983 96.2542H157.387L155.692 92.2806L153.983 96.2542Z" fill="#22242A"/>
<path d="M174.477 89.0389C174.658 89.0389 174.869 89.0456 175.108 89.059C175.355 89.0741 175.6 89.1103 175.841 89.1671C176.098 89.2292 176.345 89.3273 176.574 89.4584C176.824 89.604 177.043 89.7976 177.218 90.0281C177.426 90.311 177.581 90.6305 177.672 90.9701C177.794 91.4271 177.851 91.8989 177.841 92.3718C177.852 92.8446 177.795 93.3166 177.672 93.7734C177.58 94.1098 177.428 94.4269 177.224 94.7094C177.053 94.9413 176.835 95.1352 176.586 95.2791C176.357 95.4106 176.11 95.5087 175.853 95.5704C175.615 95.6277 175.372 95.6639 175.127 95.6785C174.892 95.6925 174.68 95.6995 174.489 95.6995H172.931V99.1034H171.453V89.0389H174.477ZM173.908 94.2209C174.179 94.2209 174.462 94.2162 174.756 94.2068C175.03 94.2023 175.3 94.1423 175.55 94.0306C175.795 93.9131 175.998 93.7239 176.133 93.488C176.285 93.1369 176.363 92.7583 176.363 92.3758C176.363 91.9932 176.285 91.6147 176.133 91.2635C175.998 91.0277 175.795 90.8384 175.55 90.7209C175.302 90.6095 175.034 90.5473 174.763 90.5377C174.473 90.5246 174.193 90.5176 173.922 90.5176H172.931V94.2219L173.908 94.2209Z" fill="#22242A"/>
<path d="M193.005 93.9355L195.229 89.0389H196.952L193.791 95.9699V99.1034H192.219V95.9699L189.045 89.0389H190.782L193.005 93.9355Z" fill="#22242A"/>
</g>
<defs>
<clipPath id="clip0_79_38">
<rect width="271.988" height="105.09" fill="white" transform="translate(0.00622559 5)"/>
</clipPath>
</defs>
</svg>
